<svg width="450" height="450" viewBox="0 0 450 450" fill="none" xmlns="http://www.w3.org/2000/svg">
<path d="M173.807 168.034L63.3561 228.6V280.918L180.381 243.523L173.807 168.034Z" fill="#CEE8FA"/>
<path d="M135.233 189.186V174.845C135.233 164.345 125.886 155.833 114.355 155.833C102.824 155.833 93.4769 164.345 93.4769 174.845V212.085L135.233 189.186Z" fill="#CEE8FA"/>
<path d="M277.982 168.034L271.408 243.523L388.433 280.918V228.6L277.982 168.034Z" fill="#CEE8FA"/>
<path d="M358.313 212.084V174.843C358.313 164.343 348.966 155.832 337.435 155.832C325.904 155.832 316.557 164.343 316.557 174.843V189.184L358.313 212.084Z" fill="#CEE8FA"/>
<path d="M398.213 211.753L372.837 198.242V166.845C372.837 150.799 358.072 137.746 339.923 137.746C323.123 137.746 309.232 148.938 307.261 163.329L290.47 154.388L295.541 102.522C295.554 102.395 295.565 102.268 295.57 102.141C296.511 84.9934 289.654 68.7056 276.261 56.2759C262.867 43.8455 244.8 37 225.383 37C205.967 37 187.899 43.8455 174.505 56.2745C161.112 68.7042 154.255 84.9934 155.196 102.139C155.202 102.243 155.21 102.346 155.219 102.45L159.896 154.602L143.506 163.329C141.535 148.936 127.645 137.746 110.844 137.746C92.695 137.746 77.9301 150.801 77.9301 166.845V198.243L52.5542 211.754C49.1081 213.589 47 216.886 47 220.442V272.607C47 275.896 48.8039 278.98 51.8379 280.882C53.8034 282.113 56.1262 282.75 58.4739 282.75C59.7505 282.75 61.0346 282.562 62.2723 282.178L168.388 249.254L175.792 331.792L142.382 346.57C138.497 348.288 136.044 351.801 136.044 355.642V402.114C136.044 405.63 138.103 408.895 141.486 410.743C143.327 411.749 145.419 412.257 147.516 412.257C149.27 412.257 151.03 411.901 152.65 411.185L230.52 376.74C236.186 374.233 238.481 368.14 235.648 363.131C232.81 358.12 225.92 356.093 220.253 358.598L158.99 385.697V361.909L192.975 346.877C197.155 345.027 199.647 341.122 199.278 337.003L190.087 234.532C190.087 234.528 190.087 234.523 190.087 234.519L183.336 159.252V159.249L178.112 101.009C177.526 89.5156 182.144 78.6023 191.125 70.2675C200.139 61.8975 212.308 57.2874 225.383 57.2874C238.459 57.2874 250.627 61.8975 259.647 70.2675C268.619 78.5943 273.237 89.4943 272.662 100.974L255.963 271.734C255.417 277.315 260.093 282.231 266.406 282.713C272.72 283.196 278.28 279.063 278.824 273.481L281.227 248.896L388.495 282.178C389.732 282.561 391.015 282.75 392.293 282.75C394.641 282.75 396.964 282.114 398.929 280.882C401.963 278.98 403.767 275.896 403.767 272.607V220.442C403.767 216.886 401.659 213.588 398.213 211.753ZM329.956 166.845C329.956 161.986 334.426 158.032 339.923 158.032C345.42 158.032 349.892 161.985 349.892 166.845V186.026L329.956 175.412V166.845ZM100.875 166.845C100.875 161.986 105.347 158.032 110.843 158.032C116.338 158.032 120.811 161.985 120.811 166.845V175.412L100.875 186.027V166.845ZM69.9445 258.297V226.175L161.924 177.203L166.511 228.337L69.9445 258.297ZM380.822 258.297L284.255 228.336L288.842 177.202L380.822 226.174V258.297Z" fill="#2D527C"/>
<path d="M308.387 346.571L273.2 331.006L274.56 317.092C275.106 311.511 270.43 306.595 264.117 306.113C257.82 305.63 252.245 309.763 251.699 315.345L249.667 336.122C249.262 340.264 251.758 344.206 255.963 346.067L291.779 361.91V385.698L273.408 377.572C267.742 375.066 260.852 377.095 258.014 382.105C255.179 387.114 257.474 393.208 263.142 395.714L298.118 411.186C299.738 411.902 301.497 412.259 303.252 412.259C305.347 412.259 307.439 411.751 309.282 410.744C312.665 408.896 314.724 405.632 314.724 402.116V355.643C314.726 351.801 312.272 348.29 308.387 346.571Z" fill="#2D527C"/>
</svg>
