<svg width="450" height="450" viewBox="0 0 450 450" fill="none" xmlns="http://www.w3.org/2000/svg">
<path d="M93.0576 256.873V334.748H357.705V256.873C357.705 245.807 347.952 236.835 335.922 236.835H114.841C102.811 236.835 93.0576 245.806 93.0576 256.873Z" fill="#CEE8FA"/>
<path d="M154.434 334.751H100.094V387.198H154.434V334.751Z" fill="#CEE8FA"/>
<path d="M350.671 334.751H296.331V387.198H350.671V334.751Z" fill="#CEE8FA"/>
<path d="M384.56 109.419H356.062V105.251C356.06 75.7836 330.016 51.8124 298.003 51.8124H152.972C120.958 51.8124 94.9129 75.7836 94.9129 105.25V109.418H66.4151C60.3974 109.418 55.5195 113.908 55.5195 119.447V181.622C55.5195 187.161 60.3974 191.651 66.4151 191.651H94.9136V233.2C87.2739 238.708 82.3505 247.269 82.3505 256.873V324.72H75.4049C69.3873 324.72 64.5093 329.21 64.5093 334.749C64.5093 340.287 69.3873 344.777 75.4049 344.777H89.3819V387.2C89.3819 392.738 94.2598 397.228 100.278 397.228H154.584C160.602 397.228 165.48 392.738 165.48 387.2V344.777H285.498V387.2C285.498 392.738 290.377 397.228 296.394 397.228H350.7C356.716 397.228 361.596 392.738 361.596 387.2V344.777H375.572C381.588 344.777 386.468 340.287 386.468 334.749C386.468 329.21 381.589 324.72 375.572 324.72H368.625V256.873C368.625 240.294 353.972 226.807 335.961 226.807H116.704V181.622V119.447V105.25C116.704 86.8437 132.974 71.8687 152.972 71.8687H159.556V138.695C159.556 144.234 164.434 148.724 170.452 148.724H280.522C286.538 148.724 291.418 144.234 291.418 138.695C291.418 133.156 286.539 128.667 280.522 128.667H181.348V71.8687H298.003C318 71.8687 334.27 86.8437 334.27 105.25V188.159C334.27 193.698 339.149 198.187 345.165 198.187C351.182 198.187 356.061 193.698 356.061 188.159V129.475H373.663V181.622C373.663 187.161 378.542 191.651 384.559 191.651C390.576 191.651 395.455 187.161 395.455 181.622V119.447C395.455 113.908 390.576 109.419 384.56 109.419ZM77.3106 171.594V129.475H94.9144V171.594H77.3106ZM143.688 377.171H111.172V344.777H143.688V377.171ZM339.804 377.171H307.288V344.777H339.804V377.171ZM346.833 256.873V280.78H314.058C308.041 280.78 303.162 285.27 303.162 290.809C303.162 296.347 308.041 300.837 314.058 300.837H346.833V324.721H296.392H154.582H104.141V297.873H139.832C145.85 297.873 150.728 293.384 150.728 287.845C150.728 282.306 145.849 277.816 139.831 277.816H104.141V256.872C104.141 251.353 109.02 246.863 115.015 246.863H335.959C341.954 246.863 346.833 251.354 346.833 256.873Z" fill="#2D527C"/>
</svg>
