<svg width="111" height="78" viewBox="0 0 111 78" fill="none" xmlns="http://www.w3.org/2000/svg">
<path d="M16.5369 29.5326C18.9817 29.3692 21.7132 30.2227 23.6574 31.7106C23.7849 31.8066 23.9099 31.9056 24.0325 32.0077C24.155 32.1098 24.275 32.215 24.3925 32.323C24.5098 32.4311 24.6244 32.5421 24.7362 32.6559C24.848 32.7696 24.957 32.8861 25.0631 33.0054C25.1692 33.1245 25.2723 33.2462 25.3723 33.3705C25.4724 33.4949 25.5693 33.6216 25.663 33.7506C25.7567 33.8798 25.8471 34.0112 25.9344 34.1448C26.0216 34.2784 26.1055 34.414 26.186 34.5518C26.2665 34.6895 26.3435 34.8292 26.4171 34.9707C26.4906 35.1123 26.5606 35.2557 26.6271 35.4008C26.6935 35.5458 26.7563 35.6924 26.8155 35.8406C26.8746 35.9888 26.9301 36.1383 26.9819 36.2892C27.0337 36.4402 27.0816 36.5923 27.1257 36.7456C27.17 36.8989 27.2104 37.0532 27.2469 37.2085C27.2835 37.3638 27.3161 37.52 27.3449 37.6769C27.3737 37.8339 27.3985 37.9914 27.4195 38.1495C27.7606 40.8892 27.2283 43.765 25.4905 45.9654C23.5773 48.3875 20.777 49.6549 17.757 50.0004C15.1106 50.245 12.3861 49.2525 10.3494 47.5936C10.2228 47.4913 10.0988 47.3858 9.9774 47.2771C9.85602 47.1685 9.7375 47.0569 9.62183 46.9424C9.50607 46.8278 9.39326 46.7103 9.28341 46.59C9.17355 46.4698 9.06685 46.3469 8.96331 46.2212C8.85966 46.0956 8.75922 45.9674 8.66198 45.8368C8.56474 45.7061 8.47089 45.5731 8.38045 45.4376C8.28991 45.3023 8.20286 45.1647 8.11932 45.025C8.03567 44.8852 7.95562 44.7434 7.87917 44.5995C7.80272 44.4558 7.72996 44.3102 7.66089 44.1627C7.59173 44.0152 7.52636 43.8661 7.46478 43.7154C7.40311 43.5646 7.34528 43.4125 7.29129 43.2589C7.2373 43.1052 7.1872 42.9502 7.14099 42.7941C7.09488 42.6379 7.05267 42.4807 7.01434 42.3223C6.97611 42.164 6.94183 42.0049 6.91148 41.8449C6.88124 41.6849 6.85503 41.5242 6.83286 41.3628C6.8107 41.2015 6.79257 41.0397 6.77848 40.8775C6.52607 38.1337 7.25065 35.3548 9.02996 33.2254C10.9705 30.903 13.5696 29.8013 16.5369 29.5326ZM18.0594 46.0429C19.8041 45.6892 21.2162 44.9581 22.2323 43.4491C23.2356 41.9592 23.5634 40.0526 23.2044 38.3004C23.1845 38.1993 23.1621 38.0987 23.1371 37.9987C23.1121 37.8986 23.0847 37.7992 23.0549 37.7006C23.0249 37.6019 22.9926 37.504 22.9578 37.4069C22.923 37.3099 22.8858 37.2137 22.8462 37.1185C22.8067 37.0233 22.7648 36.9292 22.7205 36.836C22.6762 36.7429 22.6297 36.651 22.5808 36.5601C22.5319 36.4693 22.4808 36.3798 22.4275 36.2916C22.3742 36.2033 22.3187 36.1164 22.261 36.0309C22.2034 35.9455 22.1437 35.8615 22.0819 35.779C22.02 35.6965 21.9561 35.6156 21.8902 35.5363C21.8244 35.4569 21.7566 35.3793 21.6869 35.3034C21.6171 35.2274 21.5455 35.1532 21.4721 35.0808C21.3986 35.0085 21.3234 34.938 21.2465 34.8693C21.1695 34.8008 21.0909 34.7341 21.0106 34.6694C20.9303 34.6047 20.8485 34.542 20.7651 34.4814C20.6817 34.4207 20.5968 34.3622 20.5105 34.3059C19.3479 33.5421 17.7654 33.1654 16.3825 33.3651C14.62 33.66 13.09 34.4344 12.0415 35.9226C11.0023 37.3973 10.7045 39.278 11.0188 41.0378C11.2961 42.5894 12.1569 44.0275 13.4584 44.931C14.856 45.9012 16.3927 46.164 18.0594 46.0429Z" fill="#FCFCFB"/>
<path d="M42.2935 28.2549C42.4068 28.2382 42.4077 28.2361 42.5386 28.228C42.8818 28.2069 43.2085 28.2494 43.4664 28.4944C43.6241 28.6443 43.7153 28.8092 43.7595 29.0226C43.9214 29.8053 43.8406 30.7099 43.84 31.5106L43.8311 35.749C44.0756 35.4884 44.3194 35.236 44.6091 35.0238C46.0336 33.9796 48.0968 33.8689 49.7813 34.1556C49.8962 34.174 50.0105 34.1953 50.1243 34.2194C50.2381 34.2436 50.3512 34.2706 50.4637 34.3004C50.5762 34.3303 50.6878 34.3629 50.7985 34.3984C50.9093 34.4338 51.0191 34.4721 51.1279 34.5132C51.2368 34.5543 51.3446 34.598 51.4513 34.6444C51.5579 34.6909 51.6633 34.7401 51.7674 34.7919C51.8715 34.8438 51.9743 34.8981 52.0758 34.9551C52.1772 35.0121 52.2771 35.0717 52.3755 35.1338C52.4739 35.1957 52.5707 35.2602 52.6659 35.3272C52.761 35.3941 52.8544 35.4634 52.9461 35.535C53.0377 35.6067 53.1275 35.6807 53.2154 35.7568C53.3034 35.833 53.3893 35.9113 53.4733 35.9918C53.5572 36.0724 53.6391 36.155 53.7189 36.2396C53.7987 36.3242 53.8763 36.4108 53.9516 36.4994C54.0271 36.588 54.1003 36.6784 54.1711 36.7707C54.2419 36.863 54.3104 36.957 54.3765 37.0527C55.7234 38.9965 56.0507 41.4615 55.6231 43.7569C55.234 45.8463 54.1454 47.4623 52.3967 48.6531C52.2741 48.7276 52.1496 48.7986 52.0231 48.8661C51.8965 48.9335 51.7681 48.9973 51.6379 49.0574C51.5077 49.1176 51.3759 49.174 51.2426 49.2267C51.1092 49.2794 50.9744 49.3283 50.8383 49.3734C50.7021 49.4184 50.5648 49.4596 50.4263 49.4968C50.2878 49.534 50.1484 49.5673 50.008 49.5967C49.8676 49.6261 49.7266 49.6514 49.5848 49.6728C49.4429 49.6942 49.3006 49.7115 49.1578 49.7248C47.0973 49.9224 45.4398 49.3459 43.8611 48.0426C43.6984 48.5534 43.553 49.0541 43.0693 49.3569C42.6257 49.6345 42.0328 49.67 41.5395 49.5249C40.9158 49.3415 40.4337 48.9002 40.1342 48.3318C39.91 47.9061 39.8906 47.2532 39.8704 46.7769C39.7837 44.7305 39.9094 42.6342 39.9097 40.5812C39.9102 37.5351 39.8092 34.4511 39.9297 31.4102C39.9409 31.1271 39.9526 30.8251 40.0517 30.5572C40.4055 29.6027 41.4023 28.6965 42.2935 28.2549ZM48.2824 46.1237C49.3498 45.9442 50.2358 45.593 50.8831 44.6675C51.6397 43.5856 51.769 42.0113 51.5151 40.7409C51.3125 39.7269 50.7895 38.7924 49.9006 38.2266C49.0324 37.674 48.0703 37.6196 47.0799 37.7273C46.0557 37.8898 45.1058 38.3034 44.4657 39.1592C43.7021 40.1803 43.5771 41.6751 43.7878 42.9006C43.9625 43.9165 44.4648 44.8622 45.3251 45.4575C46.222 46.078 47.2275 46.165 48.2824 46.1237Z" fill="#FCFCFB"/>
<path d="M91.3182 34.0394C92.801 33.784 94.5781 34.0629 95.9519 34.6518C97.3588 35.2551 98.2964 36.2157 98.8531 37.6434C98.9679 37.9381 99.0623 38.2393 99.1361 38.547C99.2099 38.8545 99.2624 39.1657 99.2936 39.4805C99.4448 40.9762 99.345 42.5281 99.3443 44.0315C99.3438 45.2998 99.4353 46.618 99.3326 47.8801C99.305 48.2192 99.2417 48.5715 99.0911 48.8795C98.8924 49.2864 98.4727 49.54 98.0524 49.6684C97.4284 49.859 96.7869 49.794 96.2185 49.4695C95.6828 49.1636 95.43 48.7187 95.26 48.1439C94.4543 49.0121 93.6082 49.5202 92.4334 49.7024C90.4542 50.0093 88.5218 49.4816 86.9168 48.316L86.8461 48.25C85.9482 47.402 85.372 46.4424 85.3414 45.1687C85.3138 44.0226 85.707 42.7805 86.521 41.9563C88.6216 39.8296 92.564 40.3078 95.2853 40.3007C95.2495 40.011 95.2087 39.719 95.1422 39.4347C94.9807 38.7454 94.5375 38.0916 93.9209 37.7343C92.957 37.1757 91.4169 37.2522 90.3775 37.5697C89.7876 37.7498 89.2102 38.0275 88.6129 38.1732C88.1413 38.2882 87.6339 38.3021 87.2103 38.0324C86.837 37.7949 86.6249 37.3539 86.5554 36.9281C86.4849 36.4973 86.5652 36.0901 86.8424 35.7478C87.7638 34.6102 89.9447 34.1785 91.3182 34.0394ZM93.2148 46.6093C93.9595 46.3796 94.6563 46.0353 95.0334 45.3129C95.4357 44.5425 95.3411 43.5694 95.3332 42.7245C94.1259 42.731 92.8044 42.6193 91.613 42.7542C90.8943 42.8492 90.1795 43.095 89.7115 43.6838C89.6765 43.7272 89.6439 43.7724 89.6138 43.8194C89.5836 43.8663 89.5561 43.9147 89.531 43.9647C89.506 44.0145 89.4837 44.0656 89.4639 44.1178C89.4443 44.17 89.4275 44.2231 89.4134 44.2771C89.3994 44.3311 89.3883 44.3857 89.38 44.4408C89.3717 44.496 89.3664 44.5515 89.364 44.6072C89.3617 44.663 89.3622 44.7187 89.3657 44.7744C89.3692 44.8302 89.3757 44.8855 89.385 44.9405C89.4737 45.4716 89.8061 45.9414 90.2416 46.2485C91.0414 46.8125 92.1107 46.828 93.0406 46.6496C93.0991 46.6384 93.1569 46.6236 93.2148 46.6093Z" fill="#FCFCFB"/>
<path d="M102.162 49.8042C105.378 52.3013 109.928 57.2222 110.438 61.3245C110.616 62.7595 110.291 64.2469 109.391 65.3956C108.296 66.7942 106.656 67.4402 104.991 67.8849C104.894 68.2518 104.813 68.6299 104.652 68.9743C104.278 69.6255 103.822 70.0957 103.082 70.3133C102.996 70.3381 102.908 70.3585 102.82 70.3746C102.731 70.3907 102.642 70.4024 102.553 70.4095C102.463 70.4166 102.373 70.4193 102.283 70.4174C102.193 70.4156 102.103 70.4092 102.014 70.3984C101.925 70.3875 101.836 70.3722 101.748 70.3524C101.661 70.3327 101.574 70.3087 101.489 70.2803C101.403 70.2518 101.32 70.2192 101.237 70.1825C101.155 70.1456 101.075 70.1048 100.997 70.06C100.564 69.8158 100.246 69.4883 99.9613 69.0861C99.1256 69.2845 98.1935 69.2739 97.335 69.2878C92.3369 69.3683 87.2111 68.6457 82.2903 67.82L80.1724 67.4448C78.1668 67.0489 76.1685 66.6191 74.1775 66.1554C72.1865 65.6915 70.204 65.1939 68.23 64.6626C66.2559 64.1313 64.2915 63.5665 62.3367 62.9683C60.3818 62.3701 58.4377 61.7389 56.5044 61.0746C54.5711 60.4101 52.6497 59.7131 50.74 58.9833C48.8305 58.2535 46.9338 57.4915 45.0501 56.6972C43.1664 55.903 41.2968 55.0768 39.4412 54.2188C37.5858 53.3608 35.7454 52.4716 33.9201 51.551C34.4759 51.2467 34.8811 50.9106 35.3095 50.4534C36.6677 51.1422 38.0349 51.8127 39.4111 52.4649C40.7873 53.117 42.1719 53.7506 43.565 54.3658C44.958 54.9809 46.359 55.5773 47.7681 56.155C49.1772 56.7327 50.5937 57.2913 52.0177 57.831C53.4418 58.3708 54.8727 58.8915 56.3106 59.393C57.7485 59.8944 59.1929 60.3766 60.6437 60.8393C62.0945 61.3022 63.5513 61.7455 65.0141 62.1694C66.4768 62.5933 67.9448 62.9975 69.4183 63.3821C73.4884 64.4334 77.6038 65.2372 81.7117 66.1152C82.411 66.2362 83.1162 66.3918 83.8186 66.4879C89.0241 67.3165 94.4051 67.975 99.683 67.7458C99.7087 66.9534 99.8949 66.2536 100.5 65.6955C101.025 65.2104 101.736 64.9942 102.444 65.0415C103.21 65.0927 103.964 65.4824 104.453 66.0747C104.569 66.2162 104.674 66.365 104.769 66.5211C106.248 65.9731 107.891 65.2809 108.572 63.735C109.138 62.4512 108.859 60.9371 108.346 59.6859C107.376 57.3201 105.69 55.2566 103.853 53.505C103.262 52.9415 102.348 52.2871 101.965 51.5761C101.732 51.143 101.769 50.6647 101.953 50.2211C102.012 50.0779 102.088 49.9401 102.162 49.8042Z" fill="#FCFCFB"/>
<path d="M100.419 69.1512C100.099 68.5699 99.898 67.9165 100.015 67.2481C100.027 67.1762 100.043 67.105 100.062 67.0347C100.082 66.9643 100.105 66.8952 100.131 66.8272C100.158 66.7591 100.187 66.6927 100.221 66.6278C100.254 66.5629 100.291 66.4998 100.33 66.4387C100.37 66.3775 100.413 66.3185 100.459 66.2618C100.505 66.2049 100.553 66.1506 100.605 66.0989C100.656 66.0471 100.71 65.9981 100.766 65.9519C100.823 65.9056 100.882 65.8623 100.942 65.8221C101.009 65.7779 101.078 65.7371 101.149 65.6997C101.22 65.6624 101.293 65.6287 101.367 65.5985C101.441 65.5684 101.517 65.5419 101.593 65.5192C101.67 65.4965 101.748 65.4777 101.827 65.4627C101.906 65.4477 101.985 65.4367 102.065 65.4296C102.144 65.4225 102.224 65.4194 102.305 65.4201C102.385 65.4209 102.465 65.4257 102.544 65.4345C102.624 65.4432 102.703 65.4559 102.781 65.4725C103.398 65.5982 103.963 65.948 104.299 66.487C104.697 67.1235 104.692 67.8491 104.527 68.5558C104.24 69.1641 103.841 69.6708 103.194 69.9172C102.568 70.1557 101.902 70.092 101.298 69.818C100.941 69.6556 100.706 69.4063 100.419 69.1512Z" fill="#0D2746"/>
<path d="M101.918 66.2386C102.136 66.217 102.381 66.2022 102.595 66.2501C103.02 66.345 103.424 66.6231 103.636 67.0063C103.66 67.0499 103.682 67.0945 103.701 67.1402C103.721 67.1859 103.738 67.2325 103.753 67.28C103.767 67.3276 103.779 67.3758 103.789 67.4245C103.799 67.4733 103.806 67.5224 103.811 67.5719C103.815 67.6214 103.818 67.671 103.817 67.7207C103.817 67.7704 103.814 67.8201 103.808 67.8695C103.803 67.9189 103.795 67.9678 103.784 68.0164C103.773 68.0651 103.76 68.113 103.745 68.1602C103.567 68.7168 103.192 68.9743 102.699 69.2409C102.484 69.2569 102.245 69.278 102.032 69.2365C101.622 69.1564 101.222 68.8679 101.018 68.5047C100.994 68.4614 100.972 68.4171 100.953 68.3717C100.934 68.3263 100.917 68.28 100.902 68.2329C100.887 68.1857 100.875 68.1379 100.865 68.0896C100.854 68.0413 100.847 67.9926 100.841 67.9434C100.836 67.8943 100.834 67.8451 100.833 67.7956C100.833 67.7463 100.835 67.697 100.84 67.6478C100.844 67.5987 100.851 67.5498 100.861 67.5012C100.87 67.4528 100.882 67.4049 100.896 67.3576C101.059 66.7956 101.422 66.5052 101.918 66.2386Z" fill="#FCFCFB"/>
<path d="M3.70459 15.9816C3.67813 15.2301 3.83478 14.5162 4.17749 13.8432C4.21129 13.7783 4.24671 13.7142 4.28375 13.6509C4.3207 13.5878 4.35922 13.5255 4.39932 13.4641C4.43941 13.4029 4.48099 13.3426 4.52404 13.2834C4.5671 13.2241 4.61158 13.1659 4.65749 13.1089C4.7035 13.0519 4.75084 12.9961 4.79951 12.9413C4.84818 12.8866 4.89818 12.8331 4.94951 12.7809C5.00094 12.7287 5.05355 12.6778 5.10735 12.6281C5.16124 12.5786 5.21631 12.5303 5.27257 12.4834C5.32882 12.4365 5.38621 12.391 5.44474 12.3469C5.50326 12.3029 5.56281 12.2603 5.62341 12.2192C5.684 12.1781 5.74557 12.1386 5.80813 12.1005C5.87079 12.0624 5.93429 12.0259 5.99863 11.991C6.06296 11.9561 6.12818 11.9228 6.19429 11.8911C6.2603 11.8594 6.32705 11.8294 6.39454 11.801C6.46202 11.7726 6.5302 11.7459 6.59907 11.7209C6.66794 11.6959 6.73735 11.6726 6.8073 11.651C7.99813 11.2761 9.4068 11.3901 10.5022 11.9977C11.4663 12.5325 12.1559 13.4434 12.4743 14.4912C16.0562 14.5669 19.6244 14.8287 23.1789 15.2765C24.0527 15.3877 25.1098 15.4523 25.9411 15.7242L26.0977 15.7925L27.7779 16.0465C31.3381 16.7026 34.8717 17.4796 38.3787 18.3776C41.8857 19.2756 45.3578 20.2924 48.7952 21.428C50.7014 22.0466 52.5905 22.7136 54.4625 23.4289C55.6972 23.8947 56.9268 24.44 58.1932 24.8124C57.0334 24.9126 56.1356 25.0172 55.0903 25.5942C54.3119 25.213 53.4694 24.9258 52.6596 24.6151C50.9014 23.9297 49.1234 23.3006 47.3255 22.7279C43.0903 21.3506 38.8102 20.1308 34.4852 19.0685C31.8014 18.4367 29.0822 17.9369 26.3778 17.4024C25.9077 17.2833 25.4043 17.2514 24.9223 17.1961C22.8747 16.8386 20.8096 16.6424 18.7411 16.4593C16.7218 16.2806 14.6791 16.1049 12.6505 16.1551C12.5995 17.3689 12.1087 18.5319 11.207 19.3602C11.1504 19.4115 11.0926 19.4612 11.0336 19.5095C10.9746 19.5578 10.9144 19.6046 10.8532 19.6499C10.7918 19.6951 10.7293 19.7388 10.6658 19.781C10.6022 19.8231 10.5377 19.8637 10.4722 19.9026C10.4066 19.9415 10.3401 19.9788 10.2727 20.0145C10.2052 20.05 10.1369 20.0839 10.0678 20.1162C9.99867 20.1483 9.92877 20.1787 9.85813 20.2073C9.78749 20.236 9.71616 20.2629 9.64414 20.288C9.57212 20.3131 9.49951 20.3364 9.42631 20.3579C9.35321 20.3794 9.27956 20.3991 9.20537 20.4169C9.13129 20.4346 9.05675 20.4505 8.98178 20.4646C8.9068 20.4787 8.83153 20.4909 8.75597 20.5011C8.6804 20.5114 8.60464 20.5197 8.52868 20.5263C8.45271 20.5328 8.37666 20.5374 8.3005 20.5401C8.22424 20.5428 8.14799 20.5436 8.07173 20.5425C7.99547 20.5413 7.91932 20.5383 7.84326 20.5333C6.6734 20.4689 5.51833 19.9404 4.7537 19.0424C4.44749 18.6825 4.09754 18.139 4.00001 17.6768C4.01981 17.6505 4.04109 17.6253 4.05941 17.5978C4.21592 17.3631 4.14158 16.8191 4.07818 16.5541C4.01301 16.2819 3.94828 16.1371 3.70459 15.9816ZM10.3894 16.1009C10.2706 16.7389 10.1271 17.2975 9.64207 17.7685C9.22666 18.1718 8.66006 18.3602 8.08562 18.3417C7.44114 18.321 6.83907 18.0237 6.40592 17.5499C6.35143 17.4909 6.3001 17.4293 6.25193 17.365C6.20385 17.3007 6.15922 17.234 6.11804 17.1651C6.07685 17.0961 6.03937 17.0252 6.00557 16.9524C5.97178 16.8795 5.94188 16.8051 5.91587 16.7291C5.88976 16.6531 5.86769 16.5761 5.84966 16.4978C5.83163 16.4195 5.81774 16.3405 5.80799 16.2608C5.79813 16.1811 5.79247 16.1011 5.79099 16.0208C5.78951 15.9405 5.79217 15.8603 5.79897 15.7803C5.86281 15.0527 6.26582 14.4562 6.8373 14.0199C7.33577 13.6396 7.95705 13.5382 8.56991 13.6335C9.18158 13.7287 9.64547 13.9814 10.0174 14.4738C10.6019 14.4259 11.1898 14.4374 11.7758 14.4386C11.1509 13.3833 10.4596 12.6224 9.22207 12.3051C8.14577 12.029 7.1701 12.2205 6.23139 12.7789C5.35695 13.2989 4.7939 14.0768 4.55818 15.0634C4.31301 16.0894 4.45917 17.2347 5.0169 18.1364C5.51242 18.938 6.33291 19.4717 7.24828 19.6675C8.27035 19.8862 9.41257 19.68 10.2802 19.0942C11.3479 18.3732 11.7255 17.3366 11.9778 16.1383C11.4482 16.1312 10.9188 16.1187 10.3894 16.1009Z" fill="#FCFCFB"/>
<path d="M3.70459 15.9816C3.67813 15.2301 3.83478 14.5162 4.17749 13.8432C4.21129 13.7783 4.24671 13.7142 4.28375 13.6509C4.3207 13.5878 4.35922 13.5255 4.39932 13.4641C4.43941 13.4029 4.48099 13.3426 4.52404 13.2834C4.5671 13.2241 4.61158 13.1659 4.65749 13.1089C4.7035 13.0519 4.75084 12.9961 4.79951 12.9413C4.84818 12.8866 4.89818 12.8331 4.94951 12.7809C5.00094 12.7287 5.05355 12.6778 5.10735 12.6281C5.16124 12.5786 5.21631 12.5303 5.27257 12.4834C5.32882 12.4365 5.38621 12.391 5.44474 12.3469C5.50326 12.3029 5.56281 12.2603 5.62341 12.2192C5.684 12.1781 5.74557 12.1386 5.80813 12.1005C5.87079 12.0624 5.93429 12.0259 5.99863 11.991C6.06296 11.9561 6.12818 11.9228 6.19429 11.8911C6.2603 11.8594 6.32705 11.8294 6.39454 11.801C6.46202 11.7726 6.5302 11.7459 6.59907 11.7209C6.66794 11.6959 6.73735 11.6726 6.8073 11.651C7.99814 11.2761 9.4068 11.3901 10.5022 11.9977C11.4663 12.5325 12.1559 13.4434 12.4743 14.4912C11.6552 14.4581 10.8378 14.5461 10.0174 14.4738C10.6019 14.4259 11.1898 14.4374 11.7758 14.4386C11.1509 13.3833 10.4596 12.6224 9.22208 12.3051C8.14577 12.029 7.17011 12.2205 6.23139 12.7789C5.35695 13.2989 4.7939 14.0768 4.55818 15.0634C4.31301 16.0894 4.45917 17.2347 5.0169 18.1364C5.51242 18.938 6.33291 19.4717 7.24828 19.6675C8.27035 19.8862 9.41257 19.68 10.2802 19.0942C11.3479 18.3732 11.7255 17.3366 11.9778 16.1383L12.6505 16.1551C12.5995 17.3689 12.1087 18.5319 11.207 19.3602C11.1504 19.4115 11.0926 19.4612 11.0336 19.5095C10.9746 19.5578 10.9144 19.6046 10.8532 19.6499C10.7918 19.6951 10.7293 19.7388 10.6658 19.781C10.6022 19.8231 10.5377 19.8637 10.4722 19.9026C10.4066 19.9415 10.3401 19.9788 10.2727 20.0145C10.2052 20.05 10.1369 20.0839 10.0678 20.1162C9.99868 20.1483 9.92878 20.1787 9.85813 20.2073C9.78749 20.236 9.71616 20.2629 9.64414 20.288C9.57213 20.3131 9.49951 20.3364 9.42631 20.3579C9.35321 20.3794 9.27956 20.3991 9.20537 20.4169C9.13129 20.4346 9.05675 20.4505 8.98178 20.4646C8.9068 20.4787 8.83153 20.4909 8.75597 20.5011C8.6804 20.5114 8.60464 20.5197 8.52868 20.5263C8.45272 20.5328 8.37666 20.5374 8.3005 20.5401C8.22424 20.5428 8.14799 20.5436 8.07173 20.5425C7.99548 20.5413 7.91932 20.5383 7.84326 20.5333C6.67341 20.4689 5.51833 19.9404 4.7537 19.0424C4.44749 18.6825 4.09754 18.139 4.00001 17.6768C4.01981 17.6505 4.04109 17.6253 4.05941 17.5978C4.21592 17.3631 4.14158 16.8191 4.07818 16.5541C4.01301 16.2819 3.94828 16.1371 3.70459 15.9816Z" fill="#70EBE8"/>
<path d="M67.5499 30.5471C68.1505 30.5325 68.8664 30.6859 69.3054 31.1195C70.1317 31.9351 69.9458 33.3354 69.9211 34.395C70.8564 34.3799 72.5982 34.1467 73.3105 34.8308C73.6396 35.1467 73.7698 35.5994 73.7697 36.0457C73.7695 36.548 73.5721 37.0664 73.2116 37.4204C72.4535 38.1646 70.8894 37.9393 69.906 37.9231C69.9261 39.4419 69.9084 40.9628 69.9096 42.4818C69.9101 43.2872 69.8414 44.1627 69.9799 44.9554C70.0214 45.1925 70.0891 45.3816 70.2549 45.5618C70.7525 46.1019 71.6955 45.9599 72.3625 45.9773C72.7878 45.9884 73.2496 46.065 73.5453 46.4015C73.8768 46.7788 73.9409 47.4281 73.8932 47.9066C73.8348 48.4916 73.4927 48.9002 73.0505 49.2525C72.3923 49.5963 71.6391 49.7418 70.9015 49.7551C69.5187 49.7801 67.935 49.4863 66.9208 48.474C66.367 47.921 66.0261 47.1998 65.8474 46.4451C65.55 45.1886 65.6626 43.8008 65.6714 42.5158L65.7069 37.9285C65.2971 37.9375 64.8466 37.9761 64.4432 37.9013C64.0517 37.8287 63.7064 37.6338 63.4953 37.2884C63.1956 36.7978 63.1953 36.0872 63.344 35.5483C63.5117 34.941 63.773 34.6834 64.3137 34.3837C64.7583 34.3648 65.2049 34.3756 65.6497 34.3772C65.7062 33.4664 65.4894 32.2987 65.9775 31.487C66.3344 30.8938 66.9121 30.6909 67.5499 30.5471Z" fill="#FCFCFB"/>
<path d="M79.7933 36.0138C80.7134 35.0235 81.6248 34.3752 83.0145 34.2354C83.5386 34.1826 84.2797 34.1464 84.699 34.5203C84.983 34.7737 85.1101 35.1866 85.1172 35.5579C85.1691 38.2787 82.3841 37.2063 81.0558 38.6035C79.7475 39.9797 79.8888 42.3447 79.8933 44.0956C79.8885 45.3061 80.1373 47.3018 79.7046 48.3898C79.514 48.8689 79.1741 49.2469 78.6929 49.4443C78.0809 49.6954 77.2928 49.6704 76.689 49.4096C76.3414 49.2596 75.9194 48.9497 75.7907 48.5765C75.6673 48.2185 75.64 47.7719 75.6242 47.3938C75.5426 45.4458 75.6292 43.461 75.6277 41.509C75.6263 39.684 75.5244 37.7952 75.6471 35.9773C75.6667 35.6847 75.7099 35.4311 75.8444 35.1685C76.1097 34.6506 76.5704 34.4338 77.0946 34.2472C77.6262 34.2023 78.1975 34.1919 78.6877 34.4303C79.3318 34.7434 79.5893 35.3687 79.7933 36.0138Z" fill="#FCFCFB"/>
<path d="M37.0547 34.0409C37.2455 34.0272 37.471 34.0421 37.6596 34.0731C38.0524 34.1378 38.3491 34.3555 38.5593 34.6928C38.9159 35.2648 38.9358 36.1437 38.7709 36.7801C38.3698 38.3263 36.1434 37.4467 34.9729 38.2057C32.921 39.5361 33.4557 43.97 33.4635 46.0929C33.4655 46.6162 33.5162 47.2159 33.3951 47.725C33.3852 47.7676 33.3742 47.8099 33.3622 47.8518C33.3501 47.8938 33.3369 47.9355 33.3227 47.9769C33.3085 48.0181 33.2933 48.0591 33.277 48.0997C33.2608 48.1402 33.2435 48.1803 33.2252 48.22C33.2068 48.2597 33.1875 48.2989 33.1672 48.3376C33.1469 48.3762 33.1257 48.4143 33.1035 48.452C33.0813 48.4896 33.0581 48.5267 33.0339 48.5631C33.0098 48.5995 32.9848 48.6352 32.9589 48.6704C32.933 48.7056 32.9062 48.7401 32.8785 48.7739C32.8508 48.8076 32.8222 48.8407 32.7928 48.8732C32.7634 48.9055 32.7333 48.9371 32.7023 48.9679C32.6714 48.9986 32.6397 49.0286 32.6071 49.0579C32.5746 49.0871 32.5414 49.1154 32.5074 49.143C32.4735 49.1705 32.4389 49.1971 32.4035 49.2228C32.3682 49.2486 32.3323 49.2735 32.2958 49.2973C32.2592 49.3212 32.2221 49.3442 32.1843 49.3663C31.7487 49.6212 31.2258 49.7106 30.7378 49.5651C30.1946 49.4031 29.8807 49.0558 29.6057 48.5807C29.551 48.3635 29.5083 48.1439 29.4777 47.922C29.2585 46.3332 29.4212 43.446 29.4341 41.7518C29.4467 40.0703 29.3222 37.4689 29.5536 35.8727C29.6134 35.4612 29.7418 35.0636 30.0054 34.7352C30.3069 34.3594 30.7565 34.1727 31.2277 34.1232C31.6695 34.0768 32.1484 34.2398 32.4868 34.5233C33.1656 35.0918 33.2264 36.0911 33.2906 36.9101C33.5595 36.4345 33.8447 35.9578 34.1939 35.5363C34.9545 34.6181 35.8686 34.1458 37.0547 34.0409Z" fill="#FCFCFB"/>
<path d="M59.0946 34.0237C59.71 33.989 60.311 34.0514 60.8326 34.4097C61.1843 34.6512 61.5741 35.0978 61.6327 35.5326C61.8783 37.3548 61.7169 39.3521 61.7162 41.1982C61.7151 43.3638 61.8149 45.5619 61.7156 47.7227C61.7027 48.0009 61.6993 48.3331 61.5644 48.5819C61.2047 49.2456 60.7251 49.4861 60.0263 49.6805C59.5012 49.7281 58.9879 49.6948 58.5041 49.469C58.128 49.2933 57.7347 48.9423 57.6128 48.5326C57.2966 47.4704 57.4805 42.8253 57.48 41.4973C57.4792 39.6252 57.3359 37.6484 57.511 35.7865C57.5405 35.4729 57.6047 35.1962 57.7678 34.9231C58.0708 34.416 58.5415 34.1739 59.0946 34.0237Z" fill="#FCFCFB"/>
<path d="M25.9411 15.7242C28.9284 12.2684 31.9498 9.35901 35.7549 6.80871C36.0281 6.62556 36.3035 6.44581 36.5812 6.26945C36.8588 6.0931 37.1386 5.92015 37.4204 5.75059C37.7023 5.58113 37.9862 5.41512 38.2721 5.25256C38.5581 5.08999 38.8461 4.93098 39.1359 4.77551C39.4258 4.62004 39.7174 4.46813 40.0109 4.31975C40.3045 4.17147 40.5999 4.02679 40.897 3.88571C41.1942 3.74463 41.493 3.60724 41.7935 3.47354C42.094 3.33985 42.3961 3.2098 42.6999 3.0834C43.0035 2.95709 43.3087 2.83453 43.6154 2.71571C43.9221 2.59689 44.2302 2.48187 44.5398 2.37064C44.8492 2.25931 45.16 2.15182 45.4723 2.04817C45.7844 1.94453 46.0977 1.84473 46.4123 1.74877C46.727 1.6528 47.0428 1.56074 47.3596 1.47256C47.6765 1.38438 47.9943 1.3001 48.3132 1.2197C48.6323 1.13931 48.9522 1.06281 49.273 0.990195C49.5937 0.917682 49.9154 0.849109 50.238 0.784478C50.5604 0.719848 50.8836 0.659159 51.2076 0.60241C51.5316 0.545661 51.8563 0.492903 52.1815 0.444134C52.5068 0.395366 52.8327 0.350636 53.1591 0.309946C53.4855 0.269158 53.8123 0.232409 54.1396 0.1997C54.4668 0.166892 54.7944 0.138174 55.1225 0.113543C55.4505 0.0888143 55.7787 0.0681249 56.1072 0.0514747C56.4357 0.0348244 56.7643 0.0222141 57.0931 0.0136427C57.4219 0.00507123 57.7508 0.000537657 58.0797 4.5046e-05C58.4086 -0.000447565 58.7375 0.00310015 59.0663 0.0106864C59.3951 0.0182726 59.7238 0.029849 60.0524 0.0454155C60.3809 0.0610805 60.7092 0.080736 61.0372 0.104381C61.3653 0.128125 61.6931 0.15586 62.0204 0.187584C62.3478 0.219308 62.6748 0.255071 63.0013 0.294874C63.3278 0.334579 63.6537 0.378322 63.9792 0.426106C64.3046 0.47379 64.6294 0.525513 64.9535 0.581276C65.2777 0.63704 65.6012 0.696745 65.9238 0.76039C73.4884 2.25862 80.9011 6.34142 86.1432 12.0099C86.9006 12.829 87.7377 13.6892 88.359 14.6165C87.9611 14.4501 87.8807 14.4596 87.4535 14.526L87.2958 14.6535C87.2747 14.8908 87.2946 14.9959 87.4613 15.1834C87.4797 15.204 87.4998 15.2226 87.519 15.2423L87.4544 15.3309C87.2348 15.1925 85.2605 12.7898 84.8366 12.3423C83.775 11.2383 82.6516 10.2011 81.4665 9.23073C73.462 2.69635 63.6595 0.0118687 53.4314 1.05537C46.1317 1.80005 39.1933 4.95906 33.4105 9.39211C32.3175 10.23 30.8674 11.2951 30.0044 12.3518L30.0409 12.4882C29.7378 12.839 29.3074 13.1443 28.9532 13.4462C28.0127 14.2474 27.0712 15.0317 26.0977 15.7925L25.9411 15.7242Z" fill="url(#paint0_linear_1_33)"/>
<path d="M68.2523 8.18961C68.4938 8.29768 68.7341 8.40817 68.9734 8.52108C69.2126 8.63409 69.4506 8.74951 69.6874 8.86734C69.9243 8.98517 70.1599 9.10547 70.3943 9.22822C70.6287 9.35088 70.8618 9.47596 71.0936 9.60345C71.3254 9.73093 71.5559 9.86079 71.7849 9.99301C72.0141 10.1252 72.2419 10.2598 72.4683 10.3966C72.6947 10.5334 72.9196 10.6727 73.1431 10.8142C73.3666 10.9557 73.5887 11.0995 73.8093 11.2455C74.0299 11.3916 74.2489 11.5399 74.4665 11.6904C74.684 11.841 74.9 11.9937 75.1143 12.1487C75.3287 12.3037 75.5415 12.4609 75.7526 12.6203C75.9639 12.7796 76.1734 12.9411 76.3811 13.1047C76.589 13.2684 76.7952 13.4341 76.9996 13.602C77.204 13.7699 77.4068 13.9399 77.6077 14.112C77.8087 14.284 78.0079 14.4581 78.2052 14.6343C78.4027 14.8103 78.5982 14.9885 78.7919 15.1687C78.9857 15.3489 79.1776 15.531 79.3675 15.715C79.5575 15.8992 79.7456 16.0852 79.9318 16.2731C80.118 16.461 80.3022 16.6509 80.4845 16.8426C80.6668 17.0343 80.8471 17.2279 81.0254 17.4234C81.2036 17.6188 81.3799 17.816 81.5541 18.0151C81.7284 18.2141 81.9006 18.4149 82.0708 18.6175C82.2409 18.82 82.409 19.0244 82.5749 19.2305C82.7408 19.4365 82.9046 19.6442 83.0663 19.8535C83.2279 20.063 83.3874 20.274 83.5448 20.4866C83.7021 20.6994 83.8573 20.9136 84.0103 21.1295C84.1632 21.3454 84.3139 21.5628 84.4624 21.7817C84.6109 22.0006 84.7571 22.221 84.901 22.443C85.045 22.665 85.1867 22.8884 85.326 23.1132C85.4654 23.338 85.6025 23.5643 85.7372 23.792C85.8719 24.0197 86.0043 24.2487 86.1344 24.4792C86.2644 24.7095 86.3921 24.9412 86.5173 25.1742C87.2482 26.5285 87.9851 27.9614 88.5212 29.4033C88.6743 29.8155 88.857 30.4299 88.6133 30.8442C88.5094 31.0206 88.3364 31.1124 88.1401 31.1436C87.837 31.1918 87.3563 31.1653 87.1046 30.9642C86.8 30.7206 85.3392 27.2399 84.9795 26.5565C84.8576 26.3262 84.7335 26.0971 84.6071 25.8692C84.4807 25.6413 84.352 25.4148 84.221 25.1896C84.0902 24.9642 83.9571 24.7402 83.8217 24.5176C83.6863 24.2949 83.5487 24.0736 83.409 23.8537C83.2692 23.6338 83.1272 23.4153 82.9831 23.1982C82.8388 22.9811 82.6925 22.7655 82.5441 22.5513C82.3957 22.3371 82.2451 22.1245 82.0924 21.9133C81.9398 21.7022 81.785 21.4926 81.6282 21.2845C81.4713 21.0764 81.3124 20.8699 81.1514 20.665C80.9904 20.4601 80.8275 20.2568 80.6624 20.0551C80.4974 19.8534 80.3304 19.6534 80.1614 19.4551C79.9925 19.2568 79.8215 19.0601 79.6485 18.8652C79.4756 18.6702 79.3007 18.477 79.124 18.2856C78.9472 18.0941 78.7686 17.9045 78.588 17.7166C78.4075 17.5287 78.2251 17.3426 78.0409 17.1583C77.8566 16.974 77.6705 16.7917 77.4826 16.6112C77.2947 16.4306 77.105 16.2519 76.9136 16.0752C76.7222 15.8983 76.529 15.7234 76.334 15.5505C76.1391 15.3776 75.9425 15.2067 75.7442 15.0377C75.5459 14.8687 75.3459 14.7016 75.1442 14.5366C74.9425 14.3716 74.7392 14.2086 74.5343 14.0476C74.3294 13.8867 74.1229 13.7278 73.9148 13.5708C73.7067 13.414 73.4971 13.2593 73.286 13.1067C73.0747 12.9539 72.8621 12.8033 72.648 12.6549C72.4338 12.5064 72.2182 12.3601 72.0011 12.216C71.784 12.0718 71.5655 11.9298 71.3456 11.79C71.1257 11.6502 70.9044 11.5127 70.6817 11.3773C70.4592 11.2419 70.2352 11.1088 70.0099 10.9778C69.7846 10.8469 69.558 10.7182 69.3301 10.5918C69.1022 10.4654 68.8731 10.3413 68.6428 10.2194C68.4125 10.0975 68.181 9.97803 67.9482 9.86089C67.7155 9.74364 67.4816 9.62872 67.2467 9.51611C67.4946 9.51611 67.5988 9.5931 67.8356 9.48344C68.1681 9.11399 68.248 8.67419 68.2523 8.18961Z" fill="url(#paint1_linear_1_33)"/>
<path d="M30.0409 12.4882C36.3848 7.38492 44.0606 4.81542 52.1667 4.73621L52.2724 4.75409C53.8421 5.00916 55.8891 4.71995 57.3527 5.17335L57.3716 5.23276L57.1483 5.29424C57.0424 5.55995 57.1534 6.1097 56.8606 6.24655C56.6525 6.34394 56.3128 6.333 56.0818 6.33433C55.9637 6.33507 55.9771 6.32384 55.8597 6.27404C55.3151 6.04335 53.9333 6.05857 53.3173 6.06803L53.2319 6.15759C44.7091 6.11104 37.7337 8.31079 30.8472 13.3836C29.7502 14.1917 28.847 15.217 27.7779 16.0465L26.0977 15.7925C27.0712 15.0317 28.0127 14.2474 28.9532 13.4463C29.3074 13.1443 29.7378 12.839 30.0409 12.4882Z" fill="#70EBE8"/>
<path d="M19.0869 52.4842L20.2335 52.0382C21.5215 54.7947 22.9111 57.4297 24.6691 59.9191C30.4269 68.0721 37.4738 72.5288 47.3122 74.227C48.8982 74.3392 50.4632 74.5131 52.0569 74.4976C53.0462 74.4947 54.0307 74.4255 55.0106 74.2898C55.5625 74.2167 56.2195 74.0516 56.7702 74.0701L56.7654 74.1896L56.8936 74.1271L56.8981 74.0652L56.9295 74.087C55.297 74.5087 53.6586 74.7201 51.9835 74.8775C50.3292 74.8835 48.6779 74.8158 47.0298 74.6743C46.8682 74.6545 46.6748 74.5876 46.5348 74.6727C46.6236 74.7509 46.7079 74.8192 46.8047 74.888L46.815 75.0065L46.7312 75.0723C44.5984 74.0816 42.208 73.7983 39.9837 73.028C38.4641 72.5019 36.9978 71.8146 35.5698 71.0786C27.5677 66.9547 22.9468 60.4073 19.0869 52.4842Z" fill="#70EBE8"/>
<path d="M52.0569 74.4976C53.0462 74.4947 54.0307 74.4255 55.0106 74.2898C55.5625 74.2167 56.2195 74.0516 56.7702 74.0701L56.7654 74.1896L56.8936 74.1271L56.8981 74.0652L56.9295 74.087C55.297 74.5087 53.6586 74.7201 51.9835 74.8775C50.3292 74.8835 48.6779 74.8158 47.0298 74.6743C47.089 74.6622 47.149 74.6531 47.2074 74.6371C48.2592 74.3489 50.0258 75.0145 51.246 74.6044L51.2398 74.5636C49.9234 74.5573 48.6687 74.5945 47.3633 74.3539L47.3122 74.227C48.8982 74.3392 50.4632 74.5131 52.0569 74.4976Z" fill="#55A2BD"/>
<path d="M81.7117 66.1152C82.4482 65.1565 83.229 64.2274 83.9354 63.2464C85.2811 61.3778 86.5782 59.145 87.4285 56.9958C87.9184 55.7579 88.2664 54.4913 88.6448 53.218C88.79 52.7294 88.9363 52.2129 89.5158 52.1411C89.8591 52.0987 90.4771 52.1835 90.7362 52.4222C90.8915 52.5652 90.8868 52.8809 90.8696 53.0723C90.8067 53.771 90.4879 54.4869 90.2527 55.1451C89.1873 58.1263 87.8793 61.0195 86.0723 63.633C85.7479 64.1024 83.8675 66.2779 83.8186 66.4879C83.1162 66.3918 82.411 66.2362 81.7117 66.1152Z" fill="#2D5284"/>
<path d="M3.70458 15.9816C3.94828 16.1371 4.013 16.2819 4.07818 16.5541C4.14158 16.8191 4.21591 17.3631 4.05941 17.5978C4.04108 17.6253 4.0198 17.6505 4 17.6768C3.53507 17.8759 3.04783 18.277 2.69729 18.6411C1.97507 19.3914 1.62941 20.3214 1.66207 21.3612C1.77335 24.8974 5.44636 28.3286 7.88478 30.5937C7.49611 31.0443 7.08512 31.4458 6.64502 31.846C4.63458 30.0473 2.61542 27.7534 1.2932 25.3947C0.3233 23.6643 -0.369211 21.4529 0.213646 19.4813C0.7467 17.6786 2.15596 16.8373 3.70458 15.9816Z" fill="#FCFCFB"/>
<path d="M80.1724 67.4448L82.2903 67.82C81.7996 68.4642 81.2797 69.092 80.6803 69.6385C77.6032 72.4446 71.85 75.4095 67.7908 76.3152C65.4656 77.0099 62.7203 77.5478 60.2872 77.5424C60.3005 77.5366 60.3141 77.5313 60.3273 77.5251C60.9458 77.2332 61.6163 77.4782 62.2457 77.2622C62.3685 77.2199 62.4487 77.1989 62.5804 77.2097C62.6225 77.2131 62.6643 77.2184 62.7063 77.2228C62.6252 77.0677 62.491 77.0634 62.3887 76.9017L62.4917 76.7093C61.8996 76.6419 61.1569 76.8425 60.5535 76.898C59.8405 76.9635 59.1656 76.9217 58.4564 76.8566C59.3864 76.7989 60.314 76.7876 61.2412 76.6842C63.3595 76.4479 65.4468 75.9182 67.4964 75.3481C68.1258 74.9957 69.0351 74.8045 69.7244 74.5314C70.9499 74.0458 72.1612 73.425 73.3146 72.7886C75.5021 71.5818 77.4013 70.1525 79.2406 68.463C79.5153 68.2106 80.0735 67.7866 80.1724 67.4448Z" fill="#2D5284"/>
<path d="M58.4564 76.8566C59.3864 76.7989 60.314 76.7876 61.2412 76.6842C63.3595 76.4479 65.4468 75.9182 67.4964 75.3481L67.5626 75.4369C66.8525 75.7421 65.1249 76.1887 64.338 76.2926C64.052 76.3304 63.8497 76.378 63.5939 76.5133L63.5553 76.6264C63.8117 76.8275 64.4292 76.9778 64.7518 76.9271C65.6027 76.7938 67.0018 76.152 67.7908 76.3152C65.4656 77.0099 62.7203 77.5478 60.2872 77.5424C60.3005 77.5366 60.3141 77.5313 60.3273 77.5251C60.9458 77.2332 61.6163 77.4782 62.2457 77.2622C62.3685 77.2199 62.4487 77.1989 62.5804 77.2097C62.6225 77.2131 62.6643 77.2184 62.7063 77.2229C62.6252 77.0677 62.491 77.0634 62.3887 76.9017L62.4917 76.7093C61.8996 76.6419 61.1569 76.8425 60.5535 76.898C59.8405 76.9635 59.1656 76.9217 58.4564 76.8566Z" fill="#2E8EA6"/>
<path d="M87.4544 15.3309L87.519 15.2423C87.4998 15.2226 87.4797 15.204 87.4613 15.1834C87.2946 14.9959 87.2747 14.8908 87.2958 14.6535L87.4535 14.526C87.8807 14.4596 87.9611 14.4501 88.359 14.6165C88.9814 15.2015 89.5024 16.0209 89.9841 16.7263C92.3883 20.2458 94.1101 24.0373 95.4422 28.075C95.6896 28.8249 96.1179 29.8428 96.1262 30.6234C96.1278 30.7734 96.0857 30.8955 95.979 31.0076C95.8631 31.1293 95.6095 31.2128 95.4384 31.1961C95.2121 31.174 95.0692 31.0929 94.9415 30.9063C94.4689 30.2152 94.3443 29.0086 94.0876 28.1987C93.7354 27.0754 93.3464 25.9649 92.9206 24.8672C91.4835 21.1928 89.7202 18.5168 87.4544 15.3309Z" fill="#2D5284"/>
<path d="M52.1667 4.7362C53.0499 4.66113 53.9775 4.72896 54.8617 4.78157C59.5256 5.05911 63.9914 6.31438 68.2523 8.1896C68.248 8.67418 68.1681 9.11398 67.8356 9.48344C67.5988 9.5931 67.4946 9.5161 67.2466 9.5161C64.0767 8.23911 60.9465 7.1362 57.5531 6.61527C56.6751 6.47615 55.7929 6.37236 54.9066 6.30389C54.3991 6.26206 53.8601 6.27669 53.3624 6.18329L53.2319 6.15758L53.3173 6.06802C53.9333 6.05857 55.3151 6.04335 55.8597 6.27404C55.9771 6.32384 55.9637 6.33507 56.0818 6.33433C56.3128 6.333 56.6525 6.34394 56.8606 6.24655C57.1534 6.1097 57.0424 5.55995 57.1483 5.29423L57.3716 5.23276L57.3527 5.17335C55.8891 4.71995 53.8421 5.00916 52.2724 4.75408L52.1667 4.7362Z" fill="#55A2BD"/>
<path d="M59.3928 27.8301C59.8918 27.8553 60.3273 27.8941 60.7728 28.1501C61.3334 28.4723 61.7122 29.0109 61.8593 29.6371C62.0141 30.2959 61.906 31.0254 61.5348 31.5951C61.1343 32.2097 60.5914 32.4553 59.9059 32.6127C59.2387 32.6196 58.6357 32.5601 58.0733 32.1606C57.5448 31.7854 57.2145 31.1958 57.1278 30.5576C57.037 29.8899 57.2108 29.1704 57.6481 28.6502C58.12 28.0889 58.6915 27.8999 59.3928 27.8301Z" fill="#FCFCFB"/>
<path d="M24.9223 17.1961C25.4043 17.2514 25.9077 17.2833 26.3778 17.4024C26.0317 17.7135 25.7243 18.1988 25.4224 18.5659C23.3122 21.1329 21.2468 24.1843 20.1608 27.3463C19.7729 27.2737 19.3729 27.2424 18.9808 27.1969C20.0271 23.5981 22.411 19.9459 24.9223 17.1961Z" fill="#70EBE8"/>
<path d="M29.8771 22.3085C30.1369 22.5357 30.4109 24.7892 30.4946 25.3025C31.6591 25.5056 32.8199 25.7282 33.9771 25.9703C32.8078 26.0791 31.6381 26.2926 30.4838 26.5048C30.3907 27.5035 30.1754 28.4811 29.9564 29.4581C29.6287 28.6387 29.514 27.41 29.4811 26.5258C28.2871 26.4268 27.0815 26.1339 25.908 25.8995C27.0628 25.5878 28.2991 25.4494 29.479 25.2596C29.5208 24.2862 29.6942 23.2659 29.8771 22.3085Z" fill="#FCFCFB"/>
<path d="M46.8047 74.888C47.4249 74.8802 48.3291 75.3312 48.9469 75.509C49.8308 75.7632 50.7297 76.0084 51.6336 76.1791C53.215 76.488 54.8096 76.695 56.4174 76.7999C57.0942 76.8414 57.786 76.8077 58.4564 76.8566C59.1656 76.9217 59.8405 76.9635 60.5535 76.898C61.1569 76.8425 61.8996 76.6419 62.4917 76.7093L62.3887 76.9017C62.491 77.0634 62.6252 77.0677 62.7063 77.2229C62.6643 77.2184 62.6225 77.2131 62.5804 77.2097C62.4487 77.1989 62.3685 77.2199 62.2457 77.2622C61.6163 77.4782 60.9458 77.2332 60.3273 77.5251C60.3141 77.5313 60.3005 77.5366 60.2872 77.5424C56.384 77.8642 50.2025 76.9351 46.7312 75.0723L46.815 75.0065L46.8047 74.888Z" fill="#55A2BD"/>
<path d="M72.1803 53.8753C72.5017 54.5281 72.1429 55.5992 72.8454 56.493C73.4374 57.2458 74.9496 57.261 75.8256 57.388C74.9527 57.5266 73.7298 57.4982 73.0148 58.0625C72.2496 58.6662 72.2813 59.9538 72.2024 60.8466C72.0209 60.0153 71.9901 58.8839 71.4215 58.2206C70.7674 57.4576 69.4548 57.5111 68.5299 57.458C69.4511 57.2297 70.3847 57.1795 71.2788 56.8342C71.946 56.0349 72.006 54.8653 72.1803 53.8753Z" fill="#FCFCFB"/>
<path d="M39.4362 58.914C39.6379 59.4423 39.566 60.0632 39.9489 60.5266C40.3197 60.9756 41.353 60.916 41.9023 60.9552C41.3711 61.0622 40.4751 61.0977 40.0403 61.4389C39.5756 61.8036 39.5785 62.4487 39.5023 62.9868L39.4114 63.0085C39.3416 62.5171 39.3106 61.9167 38.9828 61.5174C38.6407 61.1006 37.8209 61.1399 37.3324 61.0928C37.7763 60.9859 38.4527 60.9128 38.8299 60.6673C39.3523 60.327 39.341 59.4737 39.4362 58.914Z" fill="#FCFCFB"/>
<path d="M66.5396 13.7411C66.6319 14.217 66.7352 14.678 66.8769 15.1416C67.3532 15.3247 67.853 15.3865 68.3543 15.4656C67.8552 15.6046 67.3364 15.683 66.8269 15.7762C66.7256 16.2129 66.7225 16.6644 66.5649 17.0878C66.3629 16.6781 66.3032 16.2064 66.2173 15.7614L64.6702 15.4648C65.1881 15.3744 65.7054 15.2803 66.2219 15.1826C66.3536 14.7058 66.3659 14.2091 66.5396 13.7411Z" fill="#FCFCFB"/>
<defs>
<linearGradient id="paint0_linear_1_33" x1="60.5496" y1="23.989" x2="52.1427" y2="-0.197093" gradientUnits="userSpaceOnUse">
<stop stop-color="#435598"/>
<stop offset="1" stop-color="#3BB5C4"/>
</linearGradient>
<linearGradient id="paint1_linear_1_33" x1="86.1415" y1="18.0479" x2="70.221" y2="21.2898" gradientUnits="userSpaceOnUse">
<stop stop-color="#34508D"/>
<stop offset="1" stop-color="#5F93BD"/>
</linearGradient>
</defs>
</svg>
