<svg width="450" height="450" viewBox="0 0 450 450" fill="none" xmlns="http://www.w3.org/2000/svg">
<path d="M334.809 208.203H114.809V301.203H334.809V208.203Z" fill="#CEE8FA"/>
<path d="M394.948 379.973H352.342L315.831 310.733H335.736C341.735 310.733 346.598 306.205 346.598 300.618V208.532C346.598 202.946 341.736 198.417 335.736 198.417H236.267V120.841C236.267 115.255 231.404 110.727 225.405 110.727C219.405 110.727 214.543 115.255 214.543 120.841V198.418H125.935V100.603C125.935 83.8547 140.568 70.2297 158.552 70.2297H292.257C310.242 70.2297 324.874 83.8554 324.874 100.603V158.452C324.874 164.038 329.737 168.567 335.736 168.567C341.736 168.567 346.598 164.039 346.598 158.452V100.603C346.599 72.7002 322.221 50 292.258 50H158.553C128.588 50 104.212 72.7002 104.212 100.603V208.532V300.618C104.212 306.205 109.074 310.733 115.074 310.733H134.979L98.4679 379.973H55.8621C49.8633 379.973 45 384.501 45 390.088C45 395.674 49.8625 400.203 55.8621 400.203H105.235C109.377 400.203 113.159 398.01 114.984 394.547L122.006 381.232H259.483C265.482 381.232 270.346 376.704 270.346 371.117C270.346 365.531 265.483 361.002 259.483 361.002H132.672L141.227 344.778H226.877C232.876 344.778 237.739 340.25 237.739 334.663C237.739 329.076 232.877 324.548 226.877 324.548H151.895L159.18 310.732H291.63L335.824 394.545C337.65 398.008 341.432 400.201 345.574 400.201H394.947C400.945 400.201 405.809 395.673 405.809 390.086C405.809 384.499 400.948 379.973 394.948 379.973ZM125.935 218.647H324.874V290.504H125.935V218.647Z" fill="#2D527C"/>
<path d="M166.055 284.582C148.287 284.582 133.831 271.121 133.831 254.575C133.831 238.029 148.287 224.568 166.055 224.568C183.824 224.568 198.28 238.029 198.28 254.575C198.28 260.161 193.417 264.69 187.418 264.69C181.419 264.69 176.555 260.162 176.555 254.575C176.555 249.184 171.846 244.797 166.055 244.797C160.265 244.797 155.556 249.183 155.556 254.575C155.556 259.967 160.265 264.353 166.055 264.353C172.054 264.353 176.918 268.881 176.918 274.467C176.917 280.054 172.054 284.582 166.055 284.582Z" fill="#2D527C"/>
<path d="M284.755 284.582C266.987 284.582 252.531 271.121 252.531 254.575C252.531 238.029 266.987 224.568 284.755 224.568C302.524 224.568 316.979 238.029 316.979 254.575C316.979 260.161 312.116 264.69 306.117 264.69C300.119 264.69 295.255 260.162 295.255 254.575C295.255 249.184 290.546 244.797 284.755 244.797C278.966 244.797 274.255 249.183 274.255 254.575C274.255 259.967 278.965 264.353 284.755 264.353C290.754 264.353 295.617 268.881 295.617 274.467C295.617 280.054 290.754 284.582 284.755 284.582Z" fill="#2D527C"/>
</svg>
